<?xml version="1.0" encoding="UTF-8" standalone="no"?>
<svg
   width="96.592972"
   height="33.340122"
   viewBox="0 0 96.592979 33.340123"
   version="1.1"
   id="svg1688"
   sodipodi:docname="logo_black.svg"
   inkscape:version="1.1.1 (3bf5ae0d25, 2021-09-20)"
   xmlns:inkscape="http://www.inkscape.org/namespaces/inkscape"
   xmlns:sodipodi="http://sodipodi.sourceforge.net/DTD/sodipodi-0.dtd"
   xmlns="http://www.w3.org/2000/svg"
   xmlns:svg="http://www.w3.org/2000/svg">
  <defs
     id="defs1692" />
  <sodipodi:namedview
     id="namedview1690"
     pagecolor="#ffffff"
     bordercolor="#666666"
     borderopacity="1.0"
     inkscape:pageshadow="2"
     inkscape:pageopacity="0.0"
     inkscape:pagecheckerboard="0"
     showgrid="false"
     fit-margin-top="0"
     fit-margin-left="0"
     fit-margin-right="0"
     fit-margin-bottom="0"
     inkscape:zoom="6.4827586"
     inkscape:cx="56.765957"
     inkscape:cy="14.808511"
     inkscape:window-width="1920"
     inkscape:window-height="974"
     inkscape:window-x="-11"
     inkscape:window-y="-11"
     inkscape:window-maximized="1"
     inkscape:current-layer="svg1688" />
  <g
     id="Group_1414"
     data-name="Group 1414"
     transform="matrix(0.83275738,0,0,0.83275738,-417.21259,-480.50091)">
    <g
       id="Group_1409"
       data-name="Group 1409"
       transform="translate(501,577)">
      <g
         id="Group_1408"
         data-name="Group 1408"
         transform="translate(41.019)">
        <path
           id="Path_2610"
           data-name="Path 2610"
           d="m 263.248,220.21 c -1.053,-1.025 -2.162,-0.877 -3.511,-0.487 -6.557,1.892 -12.888,-4.114 -11.561,-10.876 1.292,-6.586 6.825,-9.738 13.221,-7.487 1.2,0.423 0.869,-0.439 0.872,-0.923 0.024,-3.751 0.005,-7.5 0.013,-11.254 0,-1.941 0.458,-2.378 2.4,-2.385 2.271,-0.009 2.9,0.488 2.881,2.416 -0.09,9.551 -0.249,19.1 -0.263,28.652 0,1.95 -1.143,2.159 -2.543,2.345 z m -10.254,-9.794 a 4.778,4.778 0 1 0 9.553,0.011 5.012,5.012 0 0 0 -4.806,-5.154 4.863,4.863 0 0 0 -4.748,5.143 z"
           transform="translate(-230.773,-186.798)"
           fill="#56629b" />
        <path
           id="Path_2611"
           data-name="Path 2611"
           d="m 343.612,248.941 a 1.986,1.986 0 0 1 -1.309,-2.1 c -0.161,-5.446 0.477,-10.874 0.317,-16.318 a 1.661,1.661 0 0 1 1.1,-1.778 c 0.832,-0.311 1.813,-0.549 2.405,0.167 0.754,0.911 1.476,0.548 2.283,0.342 2.634,-0.672 4.959,-0.008 6.238,1.807 0.6,0.852 1.069,1.737 0.126,2.683 -1.15,1.153 -2.24,1.307 -3.361,0.459 a 2.154,2.154 0 0 0 -3.4,0.836 8.954,8.954 0 0 0 -0.717,3.345 c -0.172,2.941 0.1,5.893 -0.242,8.831 a 2.306,2.306 0 0 1 -0.726,1.729 z"
           transform="translate(-295.136,-215.226)"
           fill="#56629b" />
        <path
           id="Path_2612"
           data-name="Path 2612"
           d="m 390.275,247.986 a 1.986,1.986 0 0 1 -1.309,-2.1 c -0.161,-5.446 0.477,-10.874 0.317,-16.318 a 1.661,1.661 0 0 1 1.1,-1.778 c 0.832,-0.311 1.813,-0.549 2.4,0.167 0.754,0.912 1.476,0.548 2.283,0.342 2.634,-0.672 4.959,-0.008 6.238,1.807 0.6,0.852 1.069,1.737 0.126,2.683 -1.15,1.153 -2.24,1.307 -3.361,0.459 a 2.154,2.154 0 0 0 -3.4,0.836 8.961,8.961 0 0 0 -0.717,3.345 c -0.173,2.941 0.1,5.893 -0.242,8.831 a 2.305,2.305 0 0 1 -0.726,1.73 z"
           transform="translate(-326.992,-214.574)"
           fill="#56629b" />
        <path
           id="Path_2613"
           data-name="Path 2613"
           d="m 320.584,250.563 a 6.745,6.745 0 0 0 -1.026,-0.2 1.62,1.62 0 0 1 -1.763,-1.795 c 0,-5.039 -0.007,-10.079 0.05,-15.117 0.014,-1.262 0.534,-2.191 2.08,-2.194 1.91,0 2.754,0.359 2.783,1.745 0.107,5.131 0.09,10.264 0.143,15.4 a 2.024,2.024 0 0 1 -1.663,2.163 z"
           transform="translate(-278.423,-217.151)"
           fill="#56629b" />
        <path
           id="Path_2614"
           data-name="Path 2614"
           d="m 193.756,236.623 c 0,-1.8 0,-3.6 0,-5.4 0.006,-1.838 0.811,-2.4 3.2,-2.263 1.671,0.1 2.136,0.685 1.968,2.454 a 45.74,45.74 0 0 0 0.032,9.423 c 0.22,1.968 0.963,2.752 2.634,2.794 a 3.546,3.546 0 0 0 3.556,-2.672 6.867,6.867 0 0 0 0.087,-1.345 c -0.018,-2.5 0.049,-4.992 -0.213,-7.488 -0.286,-2.722 1.241,-3.892 3.91,-3.124 a 1.508,1.508 0 0 1 1.15,1.252 9.3,9.3 0 0 1 0.122,1.639 c -0.005,4.639 -0.509,9.262 -0.11,13.919 0.236,2.753 -1.579,3.783 -4.1,2.484 a 3.277,3.277 0 0 0 -2.568,-0.223 10.353,10.353 0 0 1 -3.572,0.445 c -3.731,-0.34 -5.92,-2.6 -6.1,-6.351 -0.088,-1.845 -0.015,-3.7 -0.015,-5.548 z"
           transform="translate(-193.716,-215.454)"
           fill="#56629b" />
        <path
           id="Path_2615"
           data-name="Path 2615"
           d="m 318.361,203.3 a 3.17,3.17 0 0 1 -3.485,-3.432 3.525,3.525 0 0 1 3.7,-3.668 3.273,3.273 0 0 1 3.36,3.456 3.508,3.508 0 0 1 -3.575,3.644 z"
           transform="translate(-276.429,-193.214)"
           fill="#e9746b" />
      </g>
      <path
         id="Path_2616"
         data-name="Path 2616"
         d="m 85.555,206.869 a 11.612,11.612 0 0 1 -0.362,-1.526 c -0.144,-1.737 -0.2,-3.482 -0.386,-5.214 a 11.469,11.469 0 0 0 -0.588,-2.586 c -1.062,-3.024 -3.867,-3.844 -6.435,-1.9 a 14.98,14.98 0 0 0 -4.339,5.505 c -1.273,2.6 -2.356,5.3 -3.444,7.985 -0.485,1.2 -0.265,1.952 0.454,2.5 a 2.247,2.247 0 0 0 2.807,-0.169 7.268,7.268 0 0 0 1.543,-2.209 c 1.456,-3.094 2.813,-6.233 4.258,-9.333 a 6.885,6.885 0 0 1 1.228,-1.7 c 0.467,-0.5 0.892,-0.351 1,0.334 a 14.3,14.3 0 0 1 0.074,1.648 c 0.108,2.932 0.186,5.865 0.348,8.793 a 5.988,5.988 0 0 0 0.57,2.003 c 0.525,1.189 1.351,1.543 2.434,0.847 1.327,-0.852 2.5,-1.948 3.76,-2.9 0.512,-0.387 1.093,-0.682 1.643,-1.018 a 13.334,13.334 0 0 1 0.475,1.689 8.242,8.242 0 0 0 2.628,5.4 c 2.432,2.052 5.213,1.956 8.075,1.168 a 1.142,1.142 0 0 1 0.657,-0.032 35.869,35.869 0 0 1 -1.48,3.546 c -2.943,5.413 -7.774,8.049 -13.662,8.942 a 19.55,19.55 0 0 1 -12.58,-1.86 18.99,18.99 0 0 1 -4.294,-3.373 c -2.451,-2.482 -4.508,-5.262 -5.045,-8.858 -0.557,-3.73 -1.042,-7.488 -0.347,-11.233 1.146,-6.166 4.886,-10.113 10.808,-12.026 a 23.934,23.934 0 0 1 17.312,0.531 15.9,15.9 0 0 1 9.949,12.282 61.951,61.951 0 0 1 0.568,6.276 1.294,1.294 0 0 1 -0.917,1.42 c -1.376,0.493 -2.744,1.018 -4.14,1.447 a 2.68,2.68 0 0 1 -3.524,-2.158 40.078,40.078 0 0 1 -0.554,-3.988 c -0.137,-1.06 -0.18,-2.14 -0.415,-3.177 -0.407,-1.795 -1.315,-2.209 -2.841,-1.219 -1.273,0.826 -2.417,1.853 -3.61,2.8 -0.49,0.394 -0.959,0.802 -1.628,1.363 z M 84.6,223.817 a 33.908,33.908 0 0 0 3.588,-0.53 9.079,9.079 0 0 0 5.717,-3.368 c 0.234,-0.333 0.461,-1.039 0.307,-1.2 a 1.659,1.659 0 0 0 -1.293,-0.385 14.16,14.16 0 0 0 -2.907,0.8 c -6.009,2.44 -11.369,1.508 -16.069,-3 a 5.062,5.062 0 0 0 -2.877,-1.5 c -1.079,-0.143 -1.562,0.328 -1.112,1.285 a 9.858,9.858 0 0 0 1.731,2.661 c 3.336,3.446 7.457,5.13 12.915,5.237 z"
         transform="translate(-64.202,-188.938)"
         fill="#56629b" />
    </g>
  </g>
</svg>
